# xmcd
#
# Track frame offsets:
#      150
#      20100
#      35862
#      62826
#      85434
#      110648
#      133520
#      153935
#      173859
#      190646
#      205460
#      226938
# 
# Disc length: 3617 seconds
#
# Revision: 2
# Processed by: cddbd v1.4PL0 Copyright (c) Steve Scherf et al.
#
# Submitted via: FreeRIP 1.21
#
DISCID=a80e1f0c
DTITLE=Muddy Waters - Blues Sky
DYEAR=1900
DGENRE=Blues
TTITLE0=Jealous hearted man
TTITLE1=I cant be satisfied
TTITLE2=Crosseyed cat
TTITLE3=Who do you trust
TTITLE4=Mamie
TTITLE5=Screamin and cryin
TTITLE6=Too young to know
TTITLE7=Forever lonely
TTITLE8=I feel like going home
TTITLE9=(My eyes) keep me in trouble
TTITLE10=Streamline woman (live)
TTITLE11=Deep down in Florida (Live)
EXTD=ID3G:   0
EXTT0=
EXTT1=
EXTT2=
EXTT3=
EXTT4=
EXTT5=
EXTT6=
EXTT7=
EXTT8=
EXTT9=
EXTT10=
EXTT11=
PLAYORDER=
